<svg xmlns="http://www.w3.org/2000/svg" viewBox="0 0 63.77 49.85"><defs><style>.cls-1{isolation:isolate;}.cls-2{fill:#323232;}.cls-3{fill:#e6e6e6;}.cls-4{fill:#00b4c8;}.cls-5{fill:#c8c8c8;}.cls-10,.cls-18,.cls-6{fill:#fff;}.cls-6{opacity:0.1;}.cls-15,.cls-6{mix-blend-mode:screen;}.cls-7{fill:#00bed2;}.cls-8{fill:#f06400;}.cls-9{fill:#005a78;}.cls-11{fill:#00506e;}.cls-12{fill:#007896;}.cls-13{fill:#78dcf0;}.cls-14{fill:#006482;}.cls-15{fill:#0082a0;}.cls-15,.cls-18{opacity:0.2;}.cls-16{fill:#ffdc00;}.cls-17{fill:#32a0b4;opacity:0.45;mix-blend-mode:multiply;}</style></defs><title>Asset 5</title><g class="cls-1"><g id="Layer_2" data-name="Layer 2"><g id="Layer_1-2" data-name="Layer 1"><rect class="cls-2" y="1.32" width="27.39" height="38.71"/><rect class="cls-3" x="1.44" y="2.77" width="24.5" height="35.82"/><rect class="cls-4" x="8.25" width="10.9" height="4.21"/><path class="cls-5" d="M8.43,6.38V9.75H5.05V6.38Zm1-1H4.09v5.29h5.3V5.42Z"/><path class="cls-5" d="M8.43,14.73V18.1H5.05V14.73Zm1-1H4.09v5.29h5.3V13.77Z"/><path class="cls-5" d="M8.43,23.07v3.38H5.05V23.07Zm1-1H4.09v5.3h5.3v-5.3Z"/><path class="cls-5" d="M8.43,31.42v3.37H5.05V31.42Zm1-1H4.09v5.3h5.3v-5.3Z"/><rect class="cls-5" x="11.74" y="5.42" width="11.6" height="1.42"/><rect class="cls-5" x="11.74" y="9.29" width="11.6" height="1.42"/><rect class="cls-5" x="11.74" y="13.77" width="11.6" height="1.42"/><rect class="cls-5" x="11.74" y="17.64" width="11.6" height="1.43"/><rect class="cls-5" x="11.74" y="22.11" width="11.6" height="1.42"/><rect class="cls-5" x="11.74" y="25.98" width="11.6" height="1.43"/><rect class="cls-5" x="11.74" y="30.46" width="11.6" height="1.42"/><rect class="cls-5" x="11.74" y="34.33" width="11.6" height="1.43"/><rect class="cls-6" x="13.69" y="1.32" width="13.69" height="38.71"/><rect class="cls-7" x="13.7" width="5.45" height="4.21"/><polygon class="cls-8" points="6.51 9.57 4.71 6.15 5.24 5.87 6.53 8.31 8.25 5.27 8.77 5.57 6.51 9.57"/><polygon class="cls-8" points="6.51 17.92 4.71 14.49 5.24 14.21 6.53 16.66 8.25 13.62 8.77 13.91 6.51 17.92"/><polygon class="cls-8" points="6.51 26.26 4.71 22.84 5.24 22.56 6.53 25.01 8.25 21.96 8.77 22.26 6.51 26.26"/><path class="cls-9" d="M60,43.92c-1.62,0-3.16.07-4.78.07a15.2,15.2,0,0,1-3.89-.25c-1.45-.48-1.82-2.39-2.22-3.76,2.85-.63,10-.82,11-.44S61,40.93,61.31,42C61.64,43.43,61.39,43.92,60,43.92Z"/><path class="cls-10" d="M25.81,30.65c-2.1,3.75-4.41,3.09-7.07,3.09-1.45,0-3.69,0-4.06-1.75a4.73,4.73,0,0,1,0-1.76c.18-.84.37-.72,1.27-.72a23.69,23.69,0,0,1,4.11.36C21.88,30.17,24,30.11,25.81,30.65Z"/><path class="cls-11" d="M26.4,40c-.4,1.37-.76,3.28-2.21,3.77a15.75,15.75,0,0,1-3.9.25c-1.61,0-3.15-.06-4.77-.06-1.45,0-1.69-.48-1.37-1.93.32-1.05.13-2.05,1.21-2.45S23.54,39.38,26.4,40Z"/><path class="cls-12" d="M17.68,23.36a5,5,0,0,0-.36.73c-.14.4-.19.6-.23.72a1.46,1.46,0,0,0-.7-.1c-.2.09-.24.29-.48.35a3.34,3.34,0,0,1-1-.14c-.6-.1-1.23-.18-1.83-.32a1.79,1.79,0,0,1-1.26-2c.07-.85.93-1.13,1.62-1.23s1.61-.42,2.25,0C16.64,21.87,16.27,23.62,17.68,23.36Z"/><path class="cls-12" d="M63.44,30.09c0-.85-2-2.66-2.6-3.22a24.05,24.05,0,0,0-2.12-1.78c-.27-.16-.32-.16-.38-.32l-.23-.72a5.67,5.67,0,0,0-.36-.73c-1.14-2.05-4.45-7.17-4.73-7.45a4,4,0,0,0-2.08-1.15c-1-.18-11.3-.71-13.24-.71s-12.21.56-13.24.74a4,4,0,0,0-2.07,1.15c-.28.28-3.58,5.4-4.71,7.46a5,5,0,0,0-.36.73c-.14.4-.19.6-.23.72a1.23,1.23,0,0,1-.41.34l0,0a13.73,13.73,0,0,0-2.06,1.63c-.93,1-2.55,2.49-2.59,3.33a15.68,15.68,0,0,0-.32,3.15c0,.82.27,3.31.49,5.68s.47,4.85.49,5c0,.37-.08.77.08,1.09s.57.41,1.21.41c.2,0,2.34,0,5.28.06l18.5.23,18.83-.27c2.77-.05,4.78-.07,5-.07.64,0,1-.08,1.21-.41s0-.72.08-1.09.44-4.5.71-7.65c.12-1.38.22-2.55.24-3.07A15.65,15.65,0,0,0,63.44,30.09Zm-4-.62c.91,0,1.09-.12,1.28.72a4.48,4.48,0,0,1,0,1.75c-.37,1.76-2.6,1.77-4,1.77-2.66,0-5,.66-7.07-3.08,1.8-.55,3.92-.49,5.73-.79A22.93,22.93,0,0,1,59.48,29.47ZM22.91,16.14l14.79-.67,14.8.64s5.33,8.3,4.93,8.3-13.72-.74-19.72-.61c-6-.12-19.33.65-19.71.65S22.91,16.14,22.91,16.14ZM14.68,30.23c.18-.84.37-.72,1.27-.72a23.69,23.69,0,0,1,4.11.36c1.82.3,3.94.24,5.75.78-2.1,3.75-4.41,3.09-7.07,3.09-1.45,0-3.69,0-4.06-1.75A4.73,4.73,0,0,1,14.68,30.23Zm9.51,13.54a15.75,15.75,0,0,1-3.9.25H19.23L16.67,44H15.52c-1.45,0-1.69-.48-1.37-1.93.32-1.05.13-2.05,1.21-2.45a14.36,14.36,0,0,1,3.34-.19h.53l1.69,0,1,.05.37,0,.56,0,.54,0,.53,0,.76.08.47.06.37.05.17,0a1.81,1.81,0,0,1,.23,0l.08,0,.15,0,.22,0C26,41.37,25.64,43.28,24.19,43.77Zm20.52-.6H30.76c-.2,0-2.22.2-2.74-1.25s-1.34-3.79-1.62-5S25.11,33.64,31,33.77c3.06.07,5.27.07,6.69,0s3.64,0,6.69-.05c5.93-.14,4.94,2,4.65,3.19s-1.09,3.51-1.62,5S44.91,43.17,44.71,43.17ZM60,43.92c-1.15,0-2.26,0-3.39,0-.46,0-.91,0-1.39,0a15.2,15.2,0,0,1-3.89-.25c-1.45-.48-1.82-2.39-2.22-3.76l.32-.07.46-.08.33,0h.11l.45-.06h0l.48-.05,1.24-.11.37,0c.65,0,1.34-.09,2-.11l.52,0h1.18a14.91,14.91,0,0,1,3.54.19c1.08.4.89,1.39,1.21,2.44C61.64,43.43,61.39,43.92,60,43.92Z"/><path class="cls-13" d="M57.42,24.41l-4.82-.23L48.76,24c-3.91-.16-8.27-.29-11-.22-3.55-.07-9.69.17-14.17.38l-5.32.26H18c-.4,0,4.91-8.31,4.91-8.31L26.69,16,32,15.72l5.7-.25,14.8.64s.72,1.12,1.61,2.55c.5.79,1,1.65,1.54,2.48A15.2,15.2,0,0,1,57.42,24.41Z"/><path class="cls-10" d="M60.76,31.94c-.37,1.76-2.6,1.77-4,1.77-2.66,0-5,.66-7.07-3.08,1.8-.55,3.92-.49,5.73-.79a22.93,22.93,0,0,1,4.11-.37c.91,0,1.09-.12,1.28.72A4.48,4.48,0,0,1,60.76,31.94Z"/><path class="cls-14" d="M49.06,37c-.29,1.17-1.09,3.51-1.62,5s-2.53,1.26-2.73,1.26H30.76c-.2,0-2.22.2-2.74-1.25s-1.34-3.79-1.62-5S25.11,33.64,31,33.77c3.06.07,5.27.07,6.69,0s3.64,0,6.69-.05C50.34,33.62,49.35,35.72,49.06,37Z"/><path class="cls-15" d="M60.84,26.87a24.05,24.05,0,0,0-2.12-1.78c-.27-.16-.32-.16-.38-.32l-.23-.72a5.67,5.67,0,0,0-.36-.73c-1.14-2.05-4.45-7.17-4.73-7.45a4,4,0,0,0-2.08-1.15c-1-.18-11.24-.71-13.22-.71v1.46l14.78.64s5.33,8.3,4.93,8.3-13.7-.74-19.71-.61v22h0l18.83-.27c2.77-.05,4.78-.07,5-.07.64,0,1-.08,1.21-.41s0-.72.08-1.09.44-4.5.71-7.65c.12-1.38.22-2.55.24-3.07a15.65,15.65,0,0,0-.32-3.14C63.39,29.24,61.41,27.43,60.84,26.87Zm-5.47,3a22.93,22.93,0,0,1,4.11-.37c.91,0,1.09-.12,1.28.72a4.48,4.48,0,0,1,0,1.75c-.37,1.76-2.6,1.77-4,1.77-2.66,0-5,.66-7.07-3.08C51.44,30.08,53.56,30.14,55.37,29.84ZM60,43.92c-1.15,0-2.26,0-3.39,0-.46,0-.91,0-1.39,0a15.2,15.2,0,0,1-3.89-.25c-1.45-.48-1.82-2.39-2.22-3.76l.32-.07.46-.08.33,0h.11l.45-.06h0l.48-.05,1.24-.11.37,0c.65,0,1.34-.09,2-.11l.52,0h1.18a14.91,14.91,0,0,1,3.54.19c1.08.4.89,1.39,1.21,2.44C61.64,43.43,61.39,43.92,60,43.92Z"/><path class="cls-2" d="M19.23,45.56v3.8a.5.5,0,0,1-.49.49H12.67a.5.5,0,0,1-.49-.48V39c.23,2.49.47,4.85.49,5,0,.37-.08.77.08,1.09s.57.41,1.21.41C14.15,45.49,16.29,45.52,19.23,45.56Z"/><path class="cls-2" d="M63.61,36.58V49.32a.48.48,0,0,1-.48.48H57.05a.49.49,0,0,1-.48-.49v-3.8c2.77-.05,4.78-.07,5-.07.64,0,1-.08,1.21-.41s0-.72.08-1.09.44-4.5.71-7.65A.47.47,0,0,1,63.61,36.58Z"/><path class="cls-16" d="M18.68,41.71a1.84,1.84,0,1,1-1.84-1.84A1.84,1.84,0,0,1,18.68,41.71Z"/><path class="cls-12" d="M62.34,24.55c-.6.14-1.23.22-1.83.33a4.22,4.22,0,0,1-1,.14c-.24-.06-.28-.27-.48-.35a1.46,1.46,0,0,0-.7.1l-.23-.72a5.67,5.67,0,0,0-.36-.73c1.41.25,1-1.5,2-2.07.64-.39,1.57-.08,2.26,0s1.55.38,1.61,1.22A1.78,1.78,0,0,1,62.34,24.55Z"/><path class="cls-16" d="M21.86,41.71a1.32,1.32,0,1,1-1.32-1.32A1.32,1.32,0,0,1,21.86,41.71Z"/><path class="cls-16" d="M60.34,41.67a1.84,1.84,0,1,1-1.84-1.85A1.84,1.84,0,0,1,60.34,41.67Z"/><path class="cls-16" d="M55.93,41.67a1.32,1.32,0,1,1-1.32-1.31A1.32,1.32,0,0,1,55.93,41.67Z"/><path class="cls-17" d="M57.27,24.4c-1.07,0-4.43-.23-8.21-.38-1.72-.06-3.53-.13-5.25-.17-2.23-.06-4.33-.09-5.91-.05-6-.12-19.33.65-19.71.65,0,0,0-.06,0-.17,2-1.63,9.93-2.86,19.44-2.87,2.27,0,4.46.07,6.49.2a3.5,3.5,0,0,1-.24-.56c-.19,0-.42-.29-.53-.65s-.06-.83.13-.89a.25.25,0,0,1,.22,0,4.62,4.62,0,0,1-.27-1,3.07,3.07,0,0,1,0-1c.09-.42.32-.53.68-.72.87-.4,2.13-1,3.08-.53.32.14.33.58.33.91a1.13,1.13,0,0,1,.95,0,1,1,0,0,1,.15.14,1.51,1.51,0,0,1,.27.59,2.68,2.68,0,0,1-.24,1.62.34.34,0,0,1,.21-.08c.19.06.26.46.13.88s-.34.64-.52.66a3.65,3.65,0,0,1-.45.88C52.79,22.46,56.26,23.35,57.27,24.4Z"/><path class="cls-18" d="M32,15.72l-8.46,8.46-5.32.26L26.69,16Z"/><path class="cls-18" d="M55.65,21.14l-3,3L48.76,24l5.35-5.36C54.61,19.45,55.15,20.31,55.65,21.14Z"/></g></g></g></svg>