<svg xmlns="http://www.w3.org/2000/svg" viewBox="0 0 208.82 118.14"><defs><style>.cls-1{fill:#fff;}.cls-2{fill:#ff0303;}.cls-3{isolation:isolate;font-size:17px;fill:#4e6e81;font-family:DAGGERSQUARE-OBLIQUE, DAGGERSQUARE;font-style:oblique;}</style></defs><g id="Layer_2" data-name="Layer 2"><g id="Layer_1-2" data-name="Layer 1"><path class="cls-1" d="M111.13,90.48c22.3,0,49.5-.5,48.1-8.7a4.4,4.4,0,0,0-3-3.2c-2.5-.8-6.7-2-10.8-3.3-31.1-8.4-57.1-4-76.6,16.2a6.32,6.32,0,0,1-4.3,1.9c-39,2.1-59.1,8.1-64.3,17.4-.1.1-.3,0-.2-.1,3-9.2,6.7-14.8,59.1-20.6a6.86,6.86,0,0,0,3.4-1.4c35.4-28.7,72.6-23.1,126-5.4,6.2,2.1,11.8,3.3,16.5,3.2a1.44,1.44,0,0,1,1.5,1.6,8.84,8.84,0,0,0,.6,4.4c1.8,2.7,1.9,6.2,1.5,10.1,0,.1-.2.1-.2,0-3.5-8.6-5.9-10.4-17-11Z"/><path class="cls-2" d="M131,26.88a75.42,75.42,0,0,1,24.4,16L178,27a89.43,89.43,0,0,0-36.6-22.7Z"/><path class="cls-2" d="M94.13,2.28a88.56,88.56,0,0,0-33.2,15.3L69,29.18a75.33,75.33,0,0,1,26.7-7.5h.1Z"/><path class="cls-2" d="M174.63,74l27-2.4a89.6,89.6,0,0,0-20.7-41.5L158.33,46A75.66,75.66,0,0,1,174.63,74Z"/><path class="cls-2" d="M99.93,21.38a76.69,76.69,0,0,1,27.2,4l10.3-22.3a88.31,88.31,0,0,0-31.3-2.7,70,70,0,0,0-8,1.1C98.13,1.58,99.93,21.38,99.93,21.38Z"/><path class="cls-2" d="M27.23,89.28a75.19,75.19,0,0,1,13-35.2L33.43,51a89.81,89.81,0,0,0-8.8,38.5"/><path class="cls-2" d="M42.63,50.68a75.44,75.44,0,0,1,22.8-19.6l-7.8-11a90,90,0,0,0-22.4,27.1Z"/><text class="cls-3" transform="translate(17.15 113.58)">ELITE CAR PERFOMANCE</text></g></g></svg>